<?xml version="1.0" encoding="utf-8" ?>
<svg baseProfile="tiny" height="1280" version="1.2" width="562" xmlns="http://www.w3.org/2000/svg" xmlns:ev="http://www.w3.org/2001/xml-events" xmlns:xlink="http://www.w3.org/1999/xlink"><defs /><path d="M283 1279" fill="none" stroke="black" stroke-width="1" /><path d="M331 1274 L329 1278 L335 1276 L340 1279 L331 1275" fill="none" stroke="black" stroke-width="1" /><path d="M300 1273 L304 1273 L300 1274" fill="none" stroke="black" stroke-width="1" /><path d="M319 1270 L321 1273 L314 1278 L320 1274 L322 1277 L319 1271" fill="none" stroke="black" stroke-width="1" /><path d="M301 1269 L297 1277 L304 1278 L301 1270" fill="none" stroke="black" stroke-width="1" /><path d="M292 1266 L285 1267 L287 1277 L287 1269 L291 1267" fill="none" stroke="black" stroke-width="1" /><path d="M87 1264 L78 1277 L85 1279 L81 1275 L86 1265" fill="none" stroke="black" stroke-width="1" /><path d="M88 1244 L75 1263 L71 1276 L0 1276 L71 1276 L75 1263 L89 1244" fill="none" stroke="black" stroke-width="1" /><path d="M29 1049 L16 1068 L0 1057 L16 1068 L26 1052 L36 1052 L29 1050" fill="none" stroke="black" stroke-width="1" /><path d="M172 1022 L174 1027 L171 1023" fill="none" stroke="black" stroke-width="1" /><path d="M165 1008 L163 1018 L154 1016 L153 1011 L156 1018 L169 1019 L164 1018 L164 1009" fill="none" stroke="black" stroke-width="1" /><path d="M129 989 L115 1019 L105 1053 L108 1080 L115 1096 L100 1105 L104 1124 L100 1128 L98 1151 L92 1159 L90 1185 L77 1215 L74 1257 L76 1241 L85 1231 L80 1239 L75 1239 L78 1211 L91 1180 L96 1176 L93 1179 L89 1177 L92 1165 L103 1155 L92 1162 L102 1144 L99 1145 L98 1140 L102 1134 L104 1136 L100 1128 L103 1125 L107 1128 L100 1105 L118 1097 L110 1088 L105 1053 L124 996 L131 989 L133 996 L122 1021 L119 1051 L231 1158 L317 1221 L376 1250 L379 1254 L377 1261 L379 1257 L394 1254 L403 1258 L403 1262 L411 1255 L489 1253 L559 1241 L489 1253 L411 1255 L405 1258 L388 1254 L380 1257 L376 1250 L317 1221 L231 1158 L119 1051 L122 1021 L133 996 L131 989" fill="none" stroke="black" stroke-width="1" /><path d="M29 987 L0 1018 L15 999 L22 1001 L23 997 L27 998 L23 993" fill="none" stroke="black" stroke-width="1" /><path d="M50 986 L49 1038 L42 1048 L43 1052 L49 1038 L50 988" fill="none" stroke="black" stroke-width="1" /><path d="M35 982 L34 990 L35 982 L46 983 L38 982" fill="none" stroke="black" stroke-width="1" /><path d="M194 931 L168 948 L152 967 L145 984 L154 994 L151 1003 L156 1007 L151 1003 L154 994 L145 986 L152 967 L174 942 L189 932 L202 931 L208 975 L199 1010 L184 1018 L174 1017 L184 1018 L199 1010 L208 975 L202 931" fill="none" stroke="black" stroke-width="1" /><path d="M156 913 L138 917 L124 959 L126 972 L148 947 L160 918 L148 947 L126 972 L124 959 L138 917 L150 916 L146 927 L150 917 L158 913" fill="none" stroke="black" stroke-width="1" /><path d="M220 872 L232 876 L227 883 L222 884 L220 880" fill="none" stroke="black" stroke-width="1" /><path d="M260 838 L265 838 L277 849 L269 855 L262 852 L260 840" fill="none" stroke="black" stroke-width="1" /><path d="M112 825 L112 827" fill="none" stroke="black" stroke-width="1" /><path d="M275 809 L276 809" fill="none" stroke="black" stroke-width="1" /><path d="M185 808 L184 809" fill="none" stroke="black" stroke-width="1" /><path d="M264 803 L265 804" fill="none" stroke="black" stroke-width="1" /><path d="M100 781 L65 797 L102 781" fill="none" stroke="black" stroke-width="1" /><path d="M133 766 L125 770 L131 768" fill="none" stroke="black" stroke-width="1" /><path d="M75 750 L61 765 L11 791 L1 809 L0 816 L11 791 L61 765 L75 750 L79 757 L71 768 L61 773 L102 760 L104 764 L58 784 L62 787 L60 794 L35 805 L50 798 L51 805 L46 814 L52 803 L59 803 L63 808 L49 821 L41 823 L49 822 L45 829 L64 807 L96 790 L126 781 L131 782 L129 785 L132 781 L139 781 L140 786 L109 803 L102 802 L116 809 L109 815 L101 809 L107 815 L99 819 L111 823 L105 821 L106 816 L116 809 L110 801 L140 786 L139 781 L117 782 L130 772 L116 783 L66 807 L52 803 L53 796 L62 795 L62 784 L71 785 L98 777 L130 762 L98 777 L68 785 L69 779 L104 764 L98 760 L73 767 L73 762 L79 757 L77 750" fill="none" stroke="black" stroke-width="1" /><path d="M523 741" fill="none" stroke="black" stroke-width="1" /><path d="M509 726 L490 764 L508 727" fill="none" stroke="black" stroke-width="1" /><path d="M267 694 L276 694 L280 700 L297 699 L297 702 L277 715 L265 696" fill="none" stroke="black" stroke-width="1" /><path d="M267 694 L266 700 L288 729 L279 715 L298 700 L315 695 L300 700 L280 700 L276 694" fill="none" stroke="black" stroke-width="1" /><path d="M125 684 L132 718 L125 687" fill="none" stroke="black" stroke-width="1" /><path d="M92 681" fill="none" stroke="black" stroke-width="1" /><path d="M90 665 L93 678 L90 667" fill="none" stroke="black" stroke-width="1" /><path d="M92 648 L92 651" fill="none" stroke="black" stroke-width="1" /><path d="M159 646 L158 698 L158 647" fill="none" stroke="black" stroke-width="1" /><path d="M107 631" fill="none" stroke="black" stroke-width="1" /><path d="M543 625 L527 719 L522 724 L521 713 L516 753 L522 725 L528 727 L527 745 L530 736 L535 739 L532 743 L537 741 L538 745 L528 752 L528 756 L540 767 L536 771 L531 767 L537 782 L538 779 L545 781 L546 787 L542 789 L553 803 L561 825 L545 791 L545 781 L535 776 L540 766 L528 756 L538 743 L528 734 L528 727 L523 725 L527 719 L543 632 L546 630 L552 634 L552 647 L545 663 L547 670 L554 669 L561 644 L554 669 L547 670 L545 663 L552 647 L552 637 L556 637 L543 626" fill="none" stroke="black" stroke-width="1" /><path d="M102 593 L96 626 L102 594" fill="none" stroke="black" stroke-width="1" /><path d="M327 588 L331 620 L308 629 L291 631 L288 634 L289 651 L314 671 L335 674 L371 672 L397 677 L411 687 L407 694 L392 700 L411 690 L397 677 L371 672 L335 674 L314 671 L289 651 L288 634 L291 631 L332 620 L327 589" fill="none" stroke="black" stroke-width="1" /><path d="M555 585 L560 590 L560 636 L560 590" fill="none" stroke="black" stroke-width="1" /><path d="M117 550 L107 616 L108 628 L112 587 L115 589 L115 615 L113 581 L117 553" fill="none" stroke="black" stroke-width="1" /><path d="M132 549 L134 573 L129 573 L132 575 L130 591 L135 600 L135 613 L131 616 L126 640 L126 674 L126 640 L131 616 L136 614 L136 655 L130 648 L131 641 L130 648 L135 657 L136 675 L130 685 L135 676 L138 678 L142 750 L150 765 L158 766 L166 780 L166 795 L181 807 L178 795 L177 801 L166 795 L166 780 L156 759 L157 765 L151 766 L142 750 L135 665 L135 605 L140 604 L135 603 L130 591 L134 573 L132 559" fill="none" stroke="black" stroke-width="1" /><path d="M561 546 L557 570 L561 580 L557 571 L561 549" fill="none" stroke="black" stroke-width="1" /><path d="M126 544 L121 612 L125 616 L116 657 L122 716 L127 720 L122 716 L116 669 L117 650 L128 605 L126 611 L122 611 L126 547" fill="none" stroke="black" stroke-width="1" /><path d="M199 530 L200 531" fill="none" stroke="black" stroke-width="1" /><path d="M239 523 L239 524" fill="none" stroke="black" stroke-width="1" /><path d="M224 519 L230 518 L232 523 L225 533 L200 529 L220 519" fill="none" stroke="black" stroke-width="1" /><path d="M239 515 L240 515" fill="none" stroke="black" stroke-width="1" /><path d="M457 492 L457 493" fill="none" stroke="black" stroke-width="1" /><path d="M123 491 L127 503 L124 494 L128 493 L144 517 L148 534 L143 536 L138 526 L144 539 L143 559 L142 551 L148 552 L167 601 L149 554 L144 549 L143 537 L148 534 L148 527 L140 509 L125 493" fill="none" stroke="black" stroke-width="1" /><path d="M105 486 L99 508 L97 573 L84 663 L86 680 L85 648 L96 644 L101 633 L105 632 L101 630 L103 625 L97 643 L87 644 L89 637 L95 634 L95 631 L90 636 L97 573 L99 508 L105 492" fill="none" stroke="black" stroke-width="1" /><path d="M110 484 L117 523 L117 507 L121 504 L124 512 L117 493 L120 503 L115 511 L112 509 L111 485" fill="none" stroke="black" stroke-width="1" /><path d="M394 464 L405 463 L405 466 L383 479 L348 485 L338 481 L342 476 L387 464" fill="none" stroke="black" stroke-width="1" /><path d="M439 460 L450 470 L457 487 L463 492 L473 525 L478 530 L480 560 L476 582 L483 592 L476 601 L476 607 L476 601 L482 595 L490 612 L489 664 L476 699 L471 701 L468 698 L471 693 L455 715 L450 712 L442 727 L441 738 L430 739 L415 763 L397 778 L375 787 L369 787 L351 773 L364 746 L382 725 L388 711 L400 703 L388 711 L382 725 L364 746 L351 774 L369 787 L394 780 L415 763 L430 739 L441 738 L444 723 L457 713 L466 698 L476 699 L489 664 L490 612 L482 587 L476 582 L480 560 L478 530 L473 525 L463 492 L440 460" fill="none" stroke="black" stroke-width="1" /><path d="M437 460 L427 471 L406 477 L381 496 L365 504 L367 513 L351 522 L320 518 L318 514 L322 507 L319 502 L322 507 L315 515 L327 525 L326 520 L351 522 L369 513 L365 507 L368 501 L381 496 L406 477 L427 471 L437 461" fill="none" stroke="black" stroke-width="1" /><path d="M422 457 L406 464 L372 466 L344 475 L317 498 L337 482 L348 485 L378 481 L423 457" fill="none" stroke="black" stroke-width="1" /><path d="M542 456 L549 464 L548 469 L554 467 L561 479 L548 462" fill="none" stroke="black" stroke-width="1" /><path d="M466 426 L471 428 L482 459 L475 458 L463 429" fill="none" stroke="black" stroke-width="1" /><path d="M466 426 L463 431 L479 461 L482 454 L469 426" fill="none" stroke="black" stroke-width="1" /><path d="M386 406 L341 421 L336 427 L348 430 L345 425 L342 429 L336 427 L341 421 L386 406 L400 408 L412 422 L412 428 L353 424 L352 429 L354 425 L412 428 L412 422 L402 410 L392 406" fill="none" stroke="black" stroke-width="1" /><path d="M374 390 L344 397 L287 431 L280 454 L289 470 L313 495 L289 470 L280 454 L287 431 L344 397 L379 390" fill="none" stroke="black" stroke-width="1" /><path d="M431 321 L483 390 L433 321" fill="none" stroke="black" stroke-width="1" /><path d="M429 321 L428 326 L456 387 L451 389 L428 350 L428 343 L427 348 L453 390 L453 399 L475 426 L453 399 L453 390 L458 387 L479 421 L445 365 L445 361 L449 361 L479 394 L443 357 L429 323" fill="none" stroke="black" stroke-width="1" /><path d="M315 310 L290 323 L268 344 L259 366 L259 396 L245 444 L254 497 L263 520 L258 586 L251 616 L275 626 L309 615 L326 614 L309 615 L282 626 L251 616 L258 586 L263 520 L253 492 L250 470 L253 462 L246 462 L245 444 L259 396 L259 366 L266 348 L290 323 L320 310 L355 342 L385 385 L355 342 L320 310" fill="none" stroke="black" stroke-width="1" /><path d="M389 272" fill="none" stroke="black" stroke-width="1" /><path d="M523 256 L525 262 L511 275 L519 297 L513 297 L504 290 L494 293 L492 300 L496 310 L485 310 L481 319 L475 313 L468 313 L463 303 L459 306 L448 304 L444 310 L438 308 L401 267 L398 276 L404 298 L398 301 L397 310 L404 319 L407 334 L362 276 L353 283 L331 269 L290 264 L246 273 L221 288 L170 335 L153 362 L147 387 L151 473 L157 475 L170 470 L195 475 L199 480 L170 485 L155 508 L171 530 L179 528 L186 532 L198 528 L201 532 L197 538 L198 547 L178 551 L175 555 L175 619 L173 621 L166 615 L142 565 L146 577 L142 599 L150 621 L151 636 L151 600 L150 621 L142 599 L146 580 L153 587 L156 599 L160 599 L165 617 L172 620 L172 633 L172 621 L176 622 L180 633 L172 720 L177 777 L187 805 L176 774 L172 747 L173 692 L178 644 L182 642 L204 683 L256 751 L307 808 L334 824 L308 840 L296 840 L289 837 L288 823 L267 819 L260 814 L265 810 L258 812 L231 798 L228 793 L232 789 L266 807 L267 802 L272 806 L243 781 L228 753 L231 748 L267 783 L278 803 L267 783 L232 748 L228 751 L243 781 L266 801 L263 804 L242 792 L229 791 L231 798 L252 809 L245 815 L248 845 L239 850 L232 849 L228 857 L211 852 L209 860 L216 868 L214 871 L190 872 L186 863 L187 842 L165 833 L155 834 L115 852 L109 847 L64 871 L63 857 L91 844 L105 829 L111 829 L88 838 L95 837 L91 844 L66 855 L51 867 L61 861 L66 871 L109 847 L114 850 L110 856 L155 834 L172 834 L178 837 L180 844 L181 839 L187 842 L186 862 L181 865 L186 863 L189 868 L187 873 L174 877 L196 870 L203 874 L216 869 L220 871 L221 884 L196 898 L229 882 L232 876 L239 881 L210 862 L211 852 L248 864 L251 870 L244 874 L258 870 L230 858 L232 849 L248 855 L240 849 L251 846 L267 857 L277 850 L282 852 L259 836 L262 843 L259 849 L248 845 L245 815 L252 809 L267 819 L288 823 L289 829 L283 827 L290 830 L290 835 L281 835 L301 841 L341 823 L307 808 L215 698 L180 641 L174 620 L175 555 L178 551 L198 547 L197 538 L202 531 L225 533 L232 523 L231 516 L183 532 L178 527 L186 514 L179 526 L171 530 L155 508 L170 485 L199 480 L212 482 L170 470 L157 475 L151 473 L147 387 L153 362 L170 335 L221 288 L246 273 L275 265 L309 264 L339 272 L365 295 L355 284 L357 277 L362 276 L408 335 L425 369 L397 310 L400 299 L405 300 L410 310 L404 299 L398 270 L402 267 L429 300 L448 316 L446 305 L455 306 L459 316 L456 307 L463 303 L473 327 L470 313 L477 315 L483 327 L480 320 L485 319 L482 318 L485 310 L495 311 L500 320 L492 300 L494 293 L506 305 L497 294 L500 290 L524 301 L518 298 L511 278 L513 273 L517 273 L523 281 L517 273 L521 263 L531 269 L523 257" fill="none" stroke="black" stroke-width="1" /><path d="M526 253 L557 284 L560 313 L557 284 L527 253" fill="none" stroke="black" stroke-width="1" /><path d="M360 246 L380 271 L362 248" fill="none" stroke="black" stroke-width="1" /><path d="M365 243 L384 266 L372 250" fill="none" stroke="black" stroke-width="1" /><path d="M559 149 L560 149" fill="none" stroke="black" stroke-width="1" /></svg>